<svg width="252" height="64" viewBox="0 0 252 64" fill="none" xmlns="http://www.w3.org/2000/svg">
<path d="M231.616 39.1224L242.81 54.9739C244.681 57.6235 242.786 61.2812 239.543 61.2812H12.4573C9.21364 61.2812 7.31879 57.6235 9.18985 54.9739L20.3837 39.1224L38.2587 13.8099L45.4033 3.69263C46.1528 2.63119 47.3713 2 48.6707 2H203.329C204.629 2 205.847 2.63119 206.597 3.69263L213.741 13.8099L231.616 39.1224Z" stroke="white" stroke-width="4"/>
<path d="M80.3711 33.7051L78.7383 32.7168C77.7142 32.0938 76.9837 31.4814 76.5469 30.8799C76.1172 30.2712 75.9023 29.5729 75.9023 28.7852C75.9023 27.6035 76.3105 26.6439 77.127 25.9062C77.9505 25.1686 79.0176 24.7998 80.3281 24.7998C81.5814 24.7998 82.7308 25.1507 83.7764 25.8525V28.291C82.695 27.2526 81.5312 26.7334 80.2852 26.7334C79.5833 26.7334 79.0068 26.8981 78.5557 27.2275C78.1045 27.5498 77.8789 27.9652 77.8789 28.4736C77.8789 28.9248 78.0436 29.3473 78.373 29.7412C78.7025 30.1351 79.236 30.5469 79.9736 30.9766L81.6172 31.9434C83.4505 33.0319 84.3672 34.4212 84.3672 36.1113C84.3672 37.3145 83.9626 38.292 83.1533 39.0439C82.3512 39.7959 81.3057 40.1719 80.0166 40.1719C78.5342 40.1719 77.1842 39.7171 75.9668 38.8076V36.0791C77.127 37.5472 78.4697 38.2812 79.9951 38.2812C80.6683 38.2812 81.2269 38.0951 81.6709 37.7227C82.1221 37.3431 82.3477 36.8704 82.3477 36.3047C82.3477 35.388 81.6888 34.5215 80.3711 33.7051ZM94.8838 35.2305H87.9336C87.9837 36.1758 88.2988 36.9277 88.8789 37.4863C89.4661 38.0449 90.2217 38.3242 91.1455 38.3242C92.4346 38.3242 93.6234 37.9232 94.7119 37.1211V39.0332C94.1104 39.4342 93.5124 39.7207 92.918 39.8926C92.3307 40.0645 91.6396 40.1504 90.8447 40.1504C89.7562 40.1504 88.8753 39.9248 88.2021 39.4736C87.529 39.0225 86.9883 38.4173 86.5801 37.6582C86.179 36.8919 85.9785 36.0075 85.9785 35.0049C85.9785 33.501 86.4046 32.2799 87.2568 31.3418C88.109 30.3965 89.2155 29.9238 90.5762 29.9238C91.8867 29.9238 92.9323 30.3822 93.7129 31.2988C94.4935 32.2155 94.8838 33.4437 94.8838 34.9834V35.2305ZM87.9766 34.0596H92.9502C92.9001 33.279 92.6673 32.6774 92.252 32.2549C91.8366 31.8324 91.278 31.6211 90.5762 31.6211C89.8743 31.6211 89.2979 31.8324 88.8467 32.2549C88.4027 32.6774 88.1126 33.279 87.9766 34.0596ZM97.0537 24.9932H99.0088V40H97.0537V24.9932ZM102.07 30.1172V29.5264C102.07 27.9365 102.407 26.7513 103.08 25.9707C103.76 25.1901 104.573 24.7998 105.519 24.7998C105.927 24.7998 106.41 24.8643 106.969 24.9932V26.9053C106.654 26.7907 106.353 26.7334 106.066 26.7334C105.3 26.7334 104.767 26.9375 104.466 27.3457C104.172 27.7539 104.025 28.4808 104.025 29.5264V30.1172H105.787V31.8789H104.025V40H102.07V31.8789H100.652V30.1172H102.07ZM113.736 24.9932H122.244V26.9053H115.885V31.4814H122.029V33.4043H115.885V38.0664H122.448V39.9785H113.736V24.9932ZM123.984 39.291V37.1855C124.536 37.5723 125.098 37.8874 125.671 38.1309C126.251 38.3672 126.738 38.4854 127.132 38.4854C127.54 38.4854 127.891 38.3851 128.185 38.1846C128.478 37.984 128.625 37.7441 128.625 37.4648C128.625 37.1784 128.528 36.9421 128.335 36.7559C128.149 36.5625 127.741 36.2868 127.11 35.9287C125.85 35.2269 125.023 34.6289 124.629 34.1348C124.242 33.6335 124.049 33.0892 124.049 32.502C124.049 31.7428 124.342 31.1234 124.93 30.6436C125.524 30.1637 126.287 29.9238 127.218 29.9238C128.185 29.9238 129.176 30.196 130.193 30.7402V32.6738C129.033 31.972 128.084 31.6211 127.347 31.6211C126.967 31.6211 126.659 31.7035 126.423 31.8682C126.194 32.0257 126.079 32.237 126.079 32.502C126.079 32.7311 126.183 32.9495 126.391 33.1572C126.605 33.3649 126.978 33.6156 127.508 33.9092L128.206 34.3066C129.853 35.2376 130.677 36.2689 130.677 37.4004C130.677 38.2096 130.358 38.8757 129.721 39.3984C129.09 39.9141 128.278 40.1719 127.282 40.1719C126.695 40.1719 126.172 40.111 125.714 39.9893C125.256 39.8604 124.679 39.6276 123.984 39.291ZM131.547 31.6855L135.221 28.0762V30.1172H138.347V31.8789H135.221V36.7236C135.221 37.8551 135.69 38.4209 136.628 38.4209C137.33 38.4209 138.071 38.1846 138.852 37.7119V39.5381C138.1 39.9606 137.28 40.1719 136.392 40.1719C135.496 40.1719 134.752 39.9105 134.157 39.3877C133.971 39.2301 133.817 39.0547 133.695 38.8613C133.574 38.6608 133.47 38.403 133.384 38.0879C133.305 37.7656 133.266 37.1569 133.266 36.2617V31.8789H131.547V31.6855ZM148.681 35.2305H141.73C141.781 36.1758 142.096 36.9277 142.676 37.4863C143.263 38.0449 144.019 38.3242 144.942 38.3242C146.231 38.3242 147.42 37.9232 148.509 37.1211V39.0332C147.907 39.4342 147.309 39.7207 146.715 39.8926C146.128 40.0645 145.437 40.1504 144.642 40.1504C143.553 40.1504 142.672 39.9248 141.999 39.4736C141.326 39.0225 140.785 38.4173 140.377 37.6582C139.976 36.8919 139.775 36.0075 139.775 35.0049C139.775 33.501 140.201 32.2799 141.054 31.3418C141.906 30.3965 143.012 29.9238 144.373 29.9238C145.684 29.9238 146.729 30.3822 147.51 31.2988C148.29 32.2155 148.681 33.4437 148.681 34.9834V35.2305ZM141.773 34.0596H146.747C146.697 33.279 146.464 32.6774 146.049 32.2549C145.633 31.8324 145.075 31.6211 144.373 31.6211C143.671 31.6211 143.095 31.8324 142.644 32.2549C142.2 32.6774 141.91 33.279 141.773 34.0596ZM159.229 35.2305H152.279C152.329 36.1758 152.645 36.9277 153.225 37.4863C153.812 38.0449 154.567 38.3242 155.491 38.3242C156.78 38.3242 157.969 37.9232 159.058 37.1211V39.0332C158.456 39.4342 157.858 39.7207 157.264 39.8926C156.676 40.0645 155.985 40.1504 155.19 40.1504C154.102 40.1504 153.221 39.9248 152.548 39.4736C151.875 39.0225 151.334 38.4173 150.926 37.6582C150.525 36.8919 150.324 36.0075 150.324 35.0049C150.324 33.501 150.75 32.2799 151.603 31.3418C152.455 30.3965 153.561 29.9238 154.922 29.9238C156.232 29.9238 157.278 30.3822 158.059 31.2988C158.839 32.2155 159.229 33.4437 159.229 34.9834V35.2305ZM152.322 34.0596H157.296C157.246 33.279 157.013 32.6774 156.598 32.2549C156.182 31.8324 155.624 31.6211 154.922 31.6211C154.22 31.6211 153.644 31.8324 153.192 32.2549C152.748 32.6774 152.458 33.279 152.322 34.0596ZM169.456 32.8242V40H167.49V34.5C167.49 33.4043 167.343 32.6416 167.05 32.2119C166.756 31.7751 166.244 31.5566 165.514 31.5566C165.105 31.5566 164.729 31.6497 164.386 31.8359C164.049 32.0221 163.662 32.3516 163.226 32.8242V40H161.271V30.1172H163.226V31.417C164.221 30.4215 165.195 29.9238 166.147 29.9238C167.401 29.9238 168.371 30.5182 169.059 31.707C170.104 30.5039 171.196 29.9023 172.335 29.9023C173.295 29.9023 174.082 30.2533 174.698 30.9551C175.321 31.6569 175.633 32.7275 175.633 34.167V40H173.678V34.1455C173.678 33.3219 173.509 32.6917 173.173 32.2549C172.836 31.818 172.353 31.5996 171.723 31.5996C170.913 31.5996 170.158 32.0078 169.456 32.8242Z" fill="white"/>
</svg>
