<svg width="465" height="76" viewBox="0 0 465 76" fill="none" xmlns="http://www.w3.org/2000/svg">
<path d="M411.284 3.69263L427.366 26.4662L445.241 51.7787L456.435 67.6301C458.306 70.2797 456.411 73.9375 453.168 73.9375H11.5823C8.33864 73.9375 6.44379 70.2797 8.31485 67.6301L19.5087 51.7787L37.3837 26.4662L53.4658 3.69263C54.2153 2.63119 55.4338 2 56.7332 2H408.017C409.316 2 410.535 2.6312 411.284 3.69263L412.918 2.53895L411.284 3.69263Z" stroke="white" stroke-width="4"/>
<path d="M178.371 39.7051L176.738 38.7168C175.714 38.0938 174.984 37.4814 174.547 36.8799C174.117 36.2712 173.902 35.5729 173.902 34.7852C173.902 33.6035 174.311 32.6439 175.127 31.9062C175.951 31.1686 177.018 30.7998 178.328 30.7998C179.581 30.7998 180.731 31.1507 181.776 31.8525V34.291C180.695 33.2526 179.531 32.7334 178.285 32.7334C177.583 32.7334 177.007 32.8981 176.556 33.2275C176.104 33.5498 175.879 33.9652 175.879 34.4736C175.879 34.9248 176.044 35.3473 176.373 35.7412C176.702 36.1351 177.236 36.5469 177.974 36.9766L179.617 37.9434C181.451 39.0319 182.367 40.4212 182.367 42.1113C182.367 43.3145 181.963 44.292 181.153 45.0439C180.351 45.7959 179.306 46.1719 178.017 46.1719C176.534 46.1719 175.184 45.7171 173.967 44.8076V42.0791C175.127 43.5472 176.47 44.2812 177.995 44.2812C178.668 44.2812 179.227 44.0951 179.671 43.7227C180.122 43.3431 180.348 42.8704 180.348 42.3047C180.348 41.388 179.689 40.5215 178.371 39.7051ZM190.671 40.0596V44.2598C190.671 44.5964 190.785 44.7646 191.015 44.7646C191.251 44.7646 191.62 44.5892 192.121 44.2383V45.4307C191.677 45.7171 191.319 45.9105 191.047 46.0107C190.782 46.1182 190.503 46.1719 190.209 46.1719C189.371 46.1719 188.877 45.8424 188.727 45.1836C187.896 45.8281 187.011 46.1504 186.073 46.1504C185.386 46.1504 184.813 45.9248 184.354 45.4736C183.896 45.0153 183.667 44.4424 183.667 43.7549C183.667 43.1318 183.889 42.5768 184.333 42.0898C184.784 41.5957 185.422 41.2054 186.245 40.9189L188.748 40.0596V39.5332C188.748 38.3444 188.154 37.75 186.965 37.75C185.898 37.75 184.859 38.3014 183.85 39.4043V37.2666C184.609 36.3714 185.701 35.9238 187.126 35.9238C188.193 35.9238 189.049 36.2031 189.693 36.7617C189.908 36.9408 190.102 37.1807 190.273 37.4814C190.445 37.7751 190.553 38.0723 190.596 38.373C190.646 38.6667 190.671 39.2288 190.671 40.0596ZM188.748 44.0449V41.1123L187.438 41.6172C186.771 41.8822 186.299 42.1507 186.02 42.4229C185.747 42.6878 185.611 43.0208 185.611 43.4219C185.611 43.8301 185.74 44.1631 185.998 44.4209C186.263 44.6787 186.603 44.8076 187.019 44.8076C187.642 44.8076 188.218 44.5534 188.748 44.0449ZM194.076 36.1172V35.5264C194.076 33.9365 194.413 32.7513 195.086 31.9707C195.766 31.1901 196.579 30.7998 197.524 30.7998C197.933 30.7998 198.416 30.8643 198.975 30.9932V32.9053C198.66 32.7907 198.359 32.7334 198.072 32.7334C197.306 32.7334 196.772 32.9375 196.472 33.3457C196.178 33.7539 196.031 34.4808 196.031 35.5264V36.1172H197.793V37.8789H196.031V46H194.076V37.8789H192.658V36.1172H194.076ZM207.772 41.2305H200.822C200.872 42.1758 201.188 42.9277 201.768 43.4863C202.355 44.0449 203.11 44.3242 204.034 44.3242C205.323 44.3242 206.512 43.9232 207.601 43.1211V45.0332C206.999 45.4342 206.401 45.7207 205.807 45.8926C205.219 46.0645 204.528 46.1504 203.733 46.1504C202.645 46.1504 201.764 45.9248 201.091 45.4736C200.418 45.0225 199.877 44.4173 199.469 43.6582C199.068 42.8919 198.867 42.0075 198.867 41.0049C198.867 39.501 199.293 38.2799 200.146 37.3418C200.998 36.3965 202.104 35.9238 203.465 35.9238C204.775 35.9238 205.821 36.3822 206.602 37.2988C207.382 38.2155 207.772 39.4437 207.772 40.9834V41.2305ZM200.865 40.0596H205.839C205.789 39.279 205.556 38.6774 205.141 38.2549C204.725 37.8324 204.167 37.6211 203.465 37.6211C202.763 37.6211 202.187 37.8324 201.735 38.2549C201.291 38.6774 201.001 39.279 200.865 40.0596ZM208.514 37.6855L212.188 34.0762V36.1172H215.313V37.8789H212.188V42.7236C212.188 43.8551 212.657 44.4209 213.595 44.4209C214.297 44.4209 215.038 44.1846 215.818 43.7119V45.5381C215.066 45.9606 214.246 46.1719 213.358 46.1719C212.463 46.1719 211.718 45.9105 211.124 45.3877C210.938 45.2301 210.784 45.0547 210.662 44.8613C210.54 44.6608 210.437 44.403 210.351 44.0879C210.272 43.7656 210.232 43.1569 210.232 42.2617V37.8789H208.514V37.6855ZM223.273 36.1172H225.476L218.482 51.0381H216.302L219.664 43.8838L215.84 36.1172H218.063L220.728 41.6924L223.273 36.1172ZM245.188 30.9932H247.229V46H245.381L235.348 34.4521V46H233.328V30.9932H235.068L245.188 42.6377V30.9932ZM258.604 41.2305H251.654C251.704 42.1758 252.02 42.9277 252.6 43.4863C253.187 44.0449 253.942 44.3242 254.866 44.3242C256.155 44.3242 257.344 43.9232 258.433 43.1211V45.0332C257.831 45.4342 257.233 45.7207 256.639 45.8926C256.051 46.0645 255.36 46.1504 254.565 46.1504C253.477 46.1504 252.596 45.9248 251.923 45.4736C251.25 45.0225 250.709 44.4173 250.301 43.6582C249.9 42.8919 249.699 42.0075 249.699 41.0049C249.699 39.501 250.125 38.2799 250.978 37.3418C251.83 36.3965 252.936 35.9238 254.297 35.9238C255.607 35.9238 256.653 36.3822 257.434 37.2988C258.214 38.2155 258.604 39.4437 258.604 40.9834V41.2305ZM251.697 40.0596H256.671C256.621 39.279 256.388 38.6774 255.973 38.2549C255.557 37.8324 254.999 37.6211 254.297 37.6211C253.595 37.6211 253.019 37.8324 252.567 38.2549C252.123 38.6774 251.833 39.279 251.697 40.0596ZM269.153 41.2305H262.203C262.253 42.1758 262.568 42.9277 263.148 43.4863C263.736 44.0449 264.491 44.3242 265.415 44.3242C266.704 44.3242 267.893 43.9232 268.981 43.1211V45.0332C268.38 45.4342 267.782 45.7207 267.188 45.8926C266.6 46.0645 265.909 46.1504 265.114 46.1504C264.026 46.1504 263.145 45.9248 262.472 45.4736C261.799 45.0225 261.258 44.4173 260.85 43.6582C260.449 42.8919 260.248 42.0075 260.248 41.0049C260.248 39.501 260.674 38.2799 261.526 37.3418C262.379 36.3965 263.485 35.9238 264.846 35.9238C266.156 35.9238 267.202 36.3822 267.982 37.2988C268.763 38.2155 269.153 39.4437 269.153 40.9834V41.2305ZM262.246 40.0596H267.22C267.17 39.279 266.937 38.6774 266.521 38.2549C266.106 37.8324 265.548 37.6211 264.846 37.6211C264.144 37.6211 263.567 37.8324 263.116 38.2549C262.672 38.6774 262.382 39.279 262.246 40.0596ZM277.876 30.9932H279.842V46H275.663C274.202 46 273.035 45.5381 272.161 44.6143C271.295 43.6904 270.861 42.4515 270.861 40.8975C270.861 39.4437 271.316 38.2477 272.226 37.3096C273.142 36.3714 274.31 35.9023 275.728 35.9023C276.386 35.9023 277.103 36.042 277.876 36.3213V30.9932ZM277.876 44.3242V38.0615C277.267 37.7536 276.651 37.5996 276.028 37.5996C275.054 37.5996 274.277 37.9183 273.697 38.5557C273.124 39.193 272.838 40.0524 272.838 41.1338C272.838 42.1507 273.089 42.9349 273.59 43.4863C273.891 43.8158 274.209 44.0378 274.546 44.1523C274.882 44.2669 275.488 44.3242 276.361 44.3242H277.876ZM282.012 45.291V43.1855C282.563 43.5723 283.125 43.8874 283.698 44.1309C284.278 44.3672 284.765 44.4854 285.159 44.4854C285.567 44.4854 285.918 44.3851 286.212 44.1846C286.506 43.984 286.652 43.7441 286.652 43.4648C286.652 43.1784 286.556 42.9421 286.362 42.7559C286.176 42.5625 285.768 42.2868 285.138 41.9287C283.877 41.2269 283.05 40.6289 282.656 40.1348C282.27 39.6335 282.076 39.0892 282.076 38.502C282.076 37.7428 282.37 37.1234 282.957 36.6436C283.551 36.1637 284.314 35.9238 285.245 35.9238C286.212 35.9238 287.204 36.196 288.221 36.7402V38.6738C287.061 37.972 286.112 37.6211 285.374 37.6211C284.994 37.6211 284.687 37.7035 284.45 37.8682C284.221 38.0257 284.106 38.237 284.106 38.502C284.106 38.7311 284.21 38.9495 284.418 39.1572C284.633 39.3649 285.005 39.6156 285.535 39.9092L286.233 40.3066C287.881 41.2376 288.704 42.2689 288.704 43.4004C288.704 44.2096 288.385 44.8757 287.748 45.3984C287.118 45.9141 286.305 46.1719 285.31 46.1719C284.722 46.1719 284.2 46.111 283.741 45.9893C283.283 45.8604 282.706 45.6276 282.012 45.291Z" fill="white"/>
</svg>
