<svg width="161" height="114" viewBox="0 0 161 114" fill="none" xmlns="http://www.w3.org/2000/svg">
<path d="M83.7049 8.0941L150.304 102.404L152.56 105.599C154.431 108.248 152.536 111.906 149.293 111.906H11.5823C8.33864 111.906 6.44379 108.248 8.31485 105.599L10.5712 102.404L77.1701 8.0941C78.7638 5.83726 82.1112 5.83725 83.7049 8.0941Z" stroke="white" stroke-width="4"/>
<path d="M69.3916 73.7051L67.7588 72.7168C66.7347 72.0938 66.0042 71.4814 65.5674 70.8799C65.1377 70.2712 64.9229 69.5729 64.9229 68.7852C64.9229 67.6035 65.3311 66.6439 66.1475 65.9062C66.971 65.1686 68.0381 64.7998 69.3486 64.7998C70.6019 64.7998 71.7513 65.1507 72.7969 65.8525V68.291C71.7155 67.2526 70.5518 66.7334 69.3057 66.7334C68.6038 66.7334 68.0273 66.8981 67.5762 67.2275C67.125 67.5498 66.8994 67.9652 66.8994 68.4736C66.8994 68.9248 67.0641 69.3473 67.3936 69.7412C67.723 70.1351 68.2565 70.5469 68.9941 70.9766L70.6377 71.9434C72.471 73.0319 73.3877 74.4212 73.3877 76.1113C73.3877 77.3145 72.9831 78.292 72.1738 79.0439C71.3717 79.7959 70.3262 80.1719 69.0371 80.1719C67.5547 80.1719 66.2048 79.7171 64.9873 78.8076V76.0791C66.1475 77.5472 67.4902 78.2812 69.0156 78.2812C69.6888 78.2812 70.2474 78.0951 70.6914 77.7227C71.1426 77.3431 71.3682 76.8704 71.3682 76.3047C71.3682 75.388 70.7093 74.5215 69.3916 73.7051ZM83.9043 75.2305H76.9541C77.0042 76.1758 77.3193 76.9277 77.8994 77.4863C78.4867 78.0449 79.2422 78.3242 80.166 78.3242C81.4551 78.3242 82.6439 77.9232 83.7324 77.1211V79.0332C83.1309 79.4342 82.5329 79.7207 81.9385 79.8926C81.3512 80.0645 80.6602 80.1504 79.8652 80.1504C78.7767 80.1504 77.8958 79.9248 77.2227 79.4736C76.5495 79.0225 76.0088 78.4173 75.6006 77.6582C75.1995 76.8919 74.999 76.0075 74.999 75.0049C74.999 73.501 75.4251 72.2799 76.2773 71.3418C77.1296 70.3965 78.236 69.9238 79.5967 69.9238C80.9072 69.9238 81.9528 70.3822 82.7334 71.2988C83.514 72.2155 83.9043 73.4437 83.9043 74.9834V75.2305ZM76.9971 74.0596H81.9707C81.9206 73.279 81.6878 72.6774 81.2725 72.2549C80.8571 71.8324 80.2985 71.6211 79.5967 71.6211C78.8949 71.6211 78.3184 71.8324 77.8672 72.2549C77.4232 72.6774 77.1331 73.279 76.9971 74.0596ZM86.0742 64.9932H88.0293V80H86.0742V64.9932ZM91.0908 70.1172V69.5264C91.0908 67.9365 91.4274 66.7513 92.1006 65.9707C92.7809 65.1901 93.5938 64.7998 94.5391 64.7998C94.9473 64.7998 95.4307 64.8643 95.9893 64.9932V66.9053C95.6742 66.7907 95.3734 66.7334 95.0869 66.7334C94.3206 66.7334 93.7871 66.9375 93.4863 67.3457C93.1927 67.7539 93.0459 68.4808 93.0459 69.5264V70.1172H94.8076V71.8789H93.0459V80H91.0908V71.8789H89.6729V70.1172H91.0908ZM31.9551 94.0596V98.2598C31.9551 98.5964 32.0697 98.7646 32.2988 98.7646C32.5352 98.7646 32.904 98.5892 33.4053 98.2383V99.4307C32.9613 99.7171 32.6032 99.9105 32.3311 100.011C32.0661 100.118 31.7868 100.172 31.4932 100.172C30.6553 100.172 30.1611 99.8424 30.0107 99.1836C29.18 99.8281 28.2956 100.15 27.3574 100.15C26.6699 100.15 26.097 99.9248 25.6387 99.4736C25.1803 99.0153 24.9512 98.4424 24.9512 97.7549C24.9512 97.1318 25.1732 96.5768 25.6172 96.0898C26.0684 95.5957 26.7057 95.2054 27.5293 94.9189L30.0322 94.0596V93.5332C30.0322 92.3444 29.4378 91.75 28.249 91.75C27.182 91.75 26.1436 92.3014 25.1338 93.4043V91.2666C25.8929 90.3714 26.985 89.9238 28.4102 89.9238C29.4772 89.9238 30.333 90.2031 30.9775 90.7617C31.1924 90.9408 31.3857 91.1807 31.5576 91.4814C31.7295 91.7751 31.8369 92.0723 31.8799 92.373C31.93 92.6667 31.9551 93.2288 31.9551 94.0596ZM30.0322 98.0449V95.1123L28.7217 95.6172C28.0557 95.8822 27.583 96.1507 27.3037 96.4229C27.0316 96.6878 26.8955 97.0208 26.8955 97.4219C26.8955 97.8301 27.0244 98.1631 27.2822 98.4209C27.5472 98.6787 27.8874 98.8076 28.3027 98.8076C28.9258 98.8076 29.5023 98.5534 30.0322 98.0449ZM42.5469 97.6904V99.624C41.5658 99.9893 40.6061 100.172 39.668 100.172C38.1211 100.172 36.8857 99.7135 35.9619 98.7969C35.0452 97.8802 34.5869 96.652 34.5869 95.1123C34.5869 93.5583 35.0345 92.305 35.9297 91.3525C36.8249 90.4001 38.0029 89.9238 39.4639 89.9238C39.9723 89.9238 40.4271 89.974 40.8281 90.0742C41.2363 90.1673 41.7376 90.3464 42.332 90.6113V92.6953C41.3438 92.0651 40.4271 91.75 39.582 91.75C38.7012 91.75 37.9779 92.0615 37.4121 92.6846C36.8464 93.3005 36.5635 94.0882 36.5635 95.0479C36.5635 96.0576 36.8678 96.8597 37.4766 97.4541C38.0924 98.0485 38.9196 98.3457 39.958 98.3457C40.71 98.3457 41.5729 98.1273 42.5469 97.6904ZM43.3955 91.6855L47.0693 88.0762V90.1172H50.1953V91.8789H47.0693V96.7236C47.0693 97.8551 47.5384 98.4209 48.4766 98.4209C49.1784 98.4209 49.9196 98.1846 50.7002 97.7119V99.5381C49.9482 99.9606 49.1283 100.172 48.2402 100.172C47.3451 100.172 46.6003 99.9105 46.0059 99.3877C45.8197 99.2301 45.6657 99.0547 45.5439 98.8613C45.4222 98.6608 45.3184 98.403 45.2324 98.0879C45.1536 97.7656 45.1143 97.1569 45.1143 96.2617V91.8789H43.3955V91.6855ZM58.4023 100V98.7432C57.987 99.1943 57.5107 99.5452 56.9736 99.7959C56.4437 100.047 55.9137 100.172 55.3838 100.172C54.7607 100.172 54.1842 100.018 53.6543 99.71C53.1315 99.3949 52.734 98.9723 52.4619 98.4424C52.1969 97.9053 52.0645 97.0173 52.0645 95.7783V90.1172H54.0195V95.7568C54.0195 96.7952 54.1663 97.5221 54.46 97.9375C54.7607 98.3457 55.2835 98.5498 56.0283 98.5498C56.9593 98.5498 57.7507 98.0951 58.4023 97.1855V90.1172H60.3574V100H58.4023ZM69.3164 94.0596V98.2598C69.3164 98.5964 69.431 98.7646 69.6602 98.7646C69.8965 98.7646 70.2653 98.5892 70.7666 98.2383V99.4307C70.3226 99.7171 69.9645 99.9105 69.6924 100.011C69.4274 100.118 69.1481 100.172 68.8545 100.172C68.0166 100.172 67.5225 99.8424 67.3721 99.1836C66.5413 99.8281 65.6569 100.15 64.7188 100.15C64.0312 100.15 63.4583 99.9248 63 99.4736C62.5417 99.0153 62.3125 98.4424 62.3125 97.7549C62.3125 97.1318 62.5345 96.5768 62.9785 96.0898C63.4297 95.5957 64.0671 95.2054 64.8906 94.9189L67.3936 94.0596V93.5332C67.3936 92.3444 66.7992 91.75 65.6104 91.75C64.5433 91.75 63.5049 92.3014 62.4951 93.4043V91.2666C63.2542 90.3714 64.3464 89.9238 65.7715 89.9238C66.8385 89.9238 67.6943 90.2031 68.3389 90.7617C68.5537 90.9408 68.7471 91.1807 68.9189 91.4814C69.0908 91.7751 69.1982 92.0723 69.2412 92.373C69.2913 92.6667 69.3164 93.2288 69.3164 94.0596ZM67.3936 98.0449V95.1123L66.083 95.6172C65.417 95.8822 64.9443 96.1507 64.665 96.4229C64.3929 96.6878 64.2568 97.0208 64.2568 97.4219C64.2568 97.8301 64.3857 98.1631 64.6436 98.4209C64.9085 98.6787 65.2487 98.8076 65.6641 98.8076C66.2871 98.8076 66.8636 98.5534 67.3936 98.0449ZM72.5391 84.9932H74.4941V100H72.5391V84.9932ZM78.3398 85.96C78.6621 85.96 78.9378 86.071 79.167 86.293C79.3962 86.515 79.5107 86.7871 79.5107 87.1094C79.5107 87.4245 79.3962 87.6966 79.167 87.9258C78.9378 88.1549 78.6621 88.2695 78.3398 88.2695C78.0391 88.2695 77.7741 88.1549 77.5449 87.9258C77.3158 87.6895 77.2012 87.4173 77.2012 87.1094C77.2012 86.8086 77.3158 86.5436 77.5449 86.3145C77.7741 86.0781 78.0391 85.96 78.3398 85.96ZM77.373 90.1172H79.3281V100H77.373V90.1172ZM81.2402 90.1172H89.6836L84.4521 98.1738H89.6836V100H81.0254L86.2139 91.9434H81.2402V90.1172ZM97.5469 94.0596V98.2598C97.5469 98.5964 97.6615 98.7646 97.8906 98.7646C98.127 98.7646 98.4958 98.5892 98.9971 98.2383V99.4307C98.5531 99.7171 98.195 99.9105 97.9229 100.011C97.6579 100.118 97.3786 100.172 97.085 100.172C96.2471 100.172 95.7529 99.8424 95.6025 99.1836C94.7718 99.8281 93.8874 100.15 92.9492 100.15C92.2617 100.15 91.6888 99.9248 91.2305 99.4736C90.7721 99.0153 90.543 98.4424 90.543 97.7549C90.543 97.1318 90.765 96.5768 91.209 96.0898C91.6602 95.5957 92.2975 95.2054 93.1211 94.9189L95.624 94.0596V93.5332C95.624 92.3444 95.0296 91.75 93.8408 91.75C92.7738 91.75 91.7354 92.3014 90.7256 93.4043V91.2666C91.4847 90.3714 92.5768 89.9238 94.002 89.9238C95.069 89.9238 95.9248 90.2031 96.5693 90.7617C96.7842 90.9408 96.9775 91.1807 97.1494 91.4814C97.3213 91.7751 97.4287 92.0723 97.4717 92.373C97.5218 92.6667 97.5469 93.2288 97.5469 94.0596ZM95.624 98.0449V95.1123L94.3135 95.6172C93.6475 95.8822 93.1748 96.1507 92.8955 96.4229C92.6234 96.6878 92.4873 97.0208 92.4873 97.4219C92.4873 97.8301 92.6162 98.1631 92.874 98.4209C93.139 98.6787 93.4792 98.8076 93.8945 98.8076C94.5176 98.8076 95.0941 98.5534 95.624 98.0449ZM99.3408 91.6855L103.015 88.0762V90.1172H106.141V91.8789H103.015V96.7236C103.015 97.8551 103.484 98.4209 104.422 98.4209C105.124 98.4209 105.865 98.1846 106.646 97.7119V99.5381C105.894 99.9606 105.074 100.172 104.186 100.172C103.29 100.172 102.546 99.9105 101.951 99.3877C101.765 99.2301 101.611 99.0547 101.489 98.8613C101.368 98.6608 101.264 98.403 101.178 98.0879C101.099 97.7656 101.06 97.1569 101.06 96.2617V91.8789H99.3408V91.6855ZM109.062 85.96C109.385 85.96 109.66 86.071 109.89 86.293C110.119 86.515 110.233 86.7871 110.233 87.1094C110.233 87.4245 110.119 87.6966 109.89 87.9258C109.66 88.1549 109.385 88.2695 109.062 88.2695C108.762 88.2695 108.497 88.1549 108.268 87.9258C108.038 87.6895 107.924 87.4173 107.924 87.1094C107.924 86.8086 108.038 86.5436 108.268 86.3145C108.497 86.0781 108.762 85.96 109.062 85.96ZM108.096 90.1172H110.051V100H108.096V90.1172ZM117.613 90.0957C119.117 90.0957 120.367 90.5827 121.362 91.5566C122.358 92.5234 122.855 93.7409 122.855 95.209C122.855 96.6341 122.351 97.8193 121.341 98.7646C120.331 99.7028 119.06 100.172 117.527 100.172C116.045 100.172 114.806 99.6956 113.811 98.7432C112.815 97.7835 112.317 96.5876 112.317 95.1553C112.317 93.7087 112.819 92.5055 113.821 91.5459C114.831 90.5791 116.095 90.0957 117.613 90.0957ZM117.506 91.8574C116.568 91.8574 115.798 92.1654 115.196 92.7812C114.595 93.3971 114.294 94.1813 114.294 95.1338C114.294 96.0791 114.602 96.8525 115.218 97.4541C115.834 98.0485 116.625 98.3457 117.592 98.3457C118.551 98.3457 119.336 98.0449 119.944 97.4434C120.56 96.8346 120.868 96.0576 120.868 95.1123C120.868 94.1742 120.549 93.3971 119.912 92.7812C119.275 92.1654 118.473 91.8574 117.506 91.8574ZM126.98 90.1172V91.374C127.854 90.4072 128.846 89.9238 129.956 89.9238C130.572 89.9238 131.145 90.085 131.675 90.4072C132.205 90.7223 132.606 91.1592 132.878 91.7178C133.157 92.2692 133.297 93.1465 133.297 94.3496V100H131.342V94.3711C131.342 93.3613 131.188 92.6416 130.88 92.2119C130.572 91.7751 130.056 91.5566 129.333 91.5566C128.409 91.5566 127.625 92.0186 126.98 92.9424V100H124.982V90.1172H126.98Z" fill="white"/>
</svg>
