<svg width="572" height="76" viewBox="0 0 572 76" fill="none" xmlns="http://www.w3.org/2000/svg">
<path d="M560.418 73.9375H286H11.5823C8.33864 73.9375 6.44379 70.2797 8.31485 67.6301L37.3837 26.4662L46.3212 13.8099L53.4658 3.69263C54.2153 2.63119 55.4338 2 56.7332 2H515.267C516.566 2 517.785 2.63119 518.534 3.69263L525.679 13.8099L534.616 26.4662L563.685 67.6301C565.556 70.2797 563.661 73.9375 560.418 73.9375Z" stroke="white" stroke-width="4"/>
<path d="M198.536 46V30.9717H203.295C204.727 30.9717 205.869 31.3584 206.722 32.1318C207.574 32.9053 208 33.9437 208 35.2471C208 36.1208 207.782 36.8942 207.345 37.5674C206.908 38.2406 206.31 38.7311 205.551 39.0391C204.792 39.3398 203.703 39.4902 202.285 39.4902H200.695V46H198.536ZM202.919 32.8838H200.695V37.5781H203.048C203.922 37.5781 204.595 37.374 205.067 36.9658C205.54 36.5505 205.776 35.9596 205.776 35.1934C205.776 33.6536 204.824 32.8838 202.919 32.8838ZM209.558 30.9932H211.513V37.417C212.329 36.4215 213.342 35.9238 214.553 35.9238C215.212 35.9238 215.802 36.0885 216.325 36.418C216.848 36.7474 217.235 37.2021 217.485 37.7822C217.743 38.3623 217.872 39.2253 217.872 40.3711V46H215.917V39.8877C215.917 39.1644 215.738 38.5843 215.38 38.1475C215.029 37.7035 214.563 37.4814 213.983 37.4814C213.554 37.4814 213.149 37.5924 212.77 37.8145C212.39 38.0365 211.971 38.4053 211.513 38.9209V46H209.558V30.9932ZM226.648 36.1172H228.851L221.857 51.0381H219.677L223.039 43.8838L219.215 36.1172H221.438L224.103 41.6924L226.648 36.1172ZM229.764 45.291V43.1855C230.315 43.5723 230.877 43.8874 231.45 44.1309C232.03 44.3672 232.517 44.4854 232.911 44.4854C233.319 44.4854 233.67 44.3851 233.964 44.1846C234.257 43.984 234.404 43.7441 234.404 43.4648C234.404 43.1784 234.308 42.9421 234.114 42.7559C233.928 42.5625 233.52 42.2868 232.89 41.9287C231.629 41.2269 230.802 40.6289 230.408 40.1348C230.021 39.6335 229.828 39.0892 229.828 38.502C229.828 37.7428 230.122 37.1234 230.709 36.6436C231.303 36.1637 232.066 35.9238 232.997 35.9238C233.964 35.9238 234.956 36.196 235.973 36.7402V38.6738C234.812 37.972 233.864 37.6211 233.126 37.6211C232.746 37.6211 232.438 37.7035 232.202 37.8682C231.973 38.0257 231.858 38.237 231.858 38.502C231.858 38.7311 231.962 38.9495 232.17 39.1572C232.385 39.3649 232.757 39.6156 233.287 39.9092L233.985 40.3066C235.632 41.2376 236.456 42.2689 236.456 43.4004C236.456 44.2096 236.137 44.8757 235.5 45.3984C234.87 45.9141 234.057 46.1719 233.062 46.1719C232.474 46.1719 231.951 46.111 231.493 45.9893C231.035 45.8604 230.458 45.6276 229.764 45.291ZM239.722 31.96C240.044 31.96 240.32 32.071 240.549 32.293C240.778 32.515 240.893 32.7871 240.893 33.1094C240.893 33.4245 240.778 33.6966 240.549 33.9258C240.32 34.1549 240.044 34.2695 239.722 34.2695C239.421 34.2695 239.156 34.1549 238.927 33.9258C238.698 33.6895 238.583 33.4173 238.583 33.1094C238.583 32.8086 238.698 32.5436 238.927 32.3145C239.156 32.0781 239.421 31.96 239.722 31.96ZM238.755 36.1172H240.71V46H238.755V36.1172ZM248.272 36.0957C249.776 36.0957 251.026 36.5827 252.021 37.5566C253.017 38.5234 253.515 39.7409 253.515 41.209C253.515 42.6341 253.01 43.8193 252 44.7646C250.99 45.7028 249.719 46.1719 248.187 46.1719C246.704 46.1719 245.465 45.6956 244.47 44.7432C243.474 43.7835 242.977 42.5876 242.977 41.1553C242.977 39.7087 243.478 38.5055 244.48 37.5459C245.49 36.5791 246.754 36.0957 248.272 36.0957ZM248.165 37.8574C247.227 37.8574 246.457 38.1654 245.855 38.7812C245.254 39.3971 244.953 40.1813 244.953 41.1338C244.953 42.0791 245.261 42.8525 245.877 43.4541C246.493 44.0485 247.284 44.3457 248.251 44.3457C249.211 44.3457 249.995 44.0449 250.604 43.4434C251.219 42.8346 251.527 42.0576 251.527 41.1123C251.527 40.1742 251.209 39.3971 250.571 38.7812C249.934 38.1654 249.132 37.8574 248.165 37.8574ZM255.728 30.9932H257.683V46H255.728V30.9932ZM265.245 36.0957C266.749 36.0957 267.999 36.5827 268.994 37.5566C269.99 38.5234 270.487 39.7409 270.487 41.209C270.487 42.6341 269.982 43.8193 268.973 44.7646C267.963 45.7028 266.692 46.1719 265.159 46.1719C263.677 46.1719 262.438 45.6956 261.442 44.7432C260.447 43.7835 259.949 42.5876 259.949 41.1553C259.949 39.7087 260.451 38.5055 261.453 37.5459C262.463 36.5791 263.727 36.0957 265.245 36.0957ZM265.138 37.8574C264.2 37.8574 263.43 38.1654 262.828 38.7812C262.227 39.3971 261.926 40.1813 261.926 41.1338C261.926 42.0791 262.234 42.8525 262.85 43.4541C263.465 44.0485 264.257 44.3457 265.224 44.3457C266.183 44.3457 266.967 44.0449 267.576 43.4434C268.192 42.8346 268.5 42.0576 268.5 41.1123C268.5 40.1742 268.181 39.3971 267.544 38.7812C266.907 38.1654 266.104 37.8574 265.138 37.8574ZM272.152 39.5332C272.152 38.4805 272.535 37.6497 273.302 37.041C274.075 36.4251 275.128 36.1172 276.46 36.1172H280.531V37.6426H278.533C278.92 38.0365 279.188 38.3945 279.339 38.7168C279.489 39.0391 279.564 39.4079 279.564 39.8232C279.564 40.3389 279.418 40.8473 279.124 41.3486C278.83 41.8428 278.451 42.2223 277.985 42.4873C277.527 42.7523 276.771 42.9635 275.719 43.1211C274.981 43.2285 274.612 43.4827 274.612 43.8838C274.612 44.113 274.748 44.3027 275.021 44.4531C275.3 44.5964 275.801 44.7467 276.524 44.9043C277.735 45.1693 278.512 45.377 278.855 45.5273C279.206 45.6777 279.521 45.8926 279.801 46.1719C280.273 46.6445 280.51 47.2389 280.51 47.9551C280.51 48.8932 280.091 49.6416 279.253 50.2002C278.422 50.7588 277.309 51.0381 275.912 51.0381C274.501 51.0381 273.373 50.7552 272.528 50.1895C271.69 49.6309 271.271 48.8789 271.271 47.9336C271.271 46.5944 272.099 45.7314 273.753 45.3447C273.094 44.9222 272.765 44.5033 272.765 44.0879C272.765 43.7728 272.904 43.4863 273.184 43.2285C273.47 42.9707 273.853 42.7809 274.333 42.6592C272.879 42.0146 272.152 40.9727 272.152 39.5332ZM275.826 37.8145C275.296 37.8145 274.845 37.9935 274.473 38.3516C274.1 38.7096 273.914 39.1393 273.914 39.6406C273.914 40.1491 274.097 40.5716 274.462 40.9082C274.827 41.2376 275.289 41.4023 275.848 41.4023C276.399 41.4023 276.857 41.234 277.223 40.8975C277.595 40.5537 277.781 40.1276 277.781 39.6191C277.781 39.1035 277.595 38.6738 277.223 38.3301C276.85 37.9863 276.385 37.8145 275.826 37.8145ZM275.364 46.4619C274.705 46.4619 274.165 46.6016 273.742 46.8809C273.327 47.1602 273.119 47.5182 273.119 47.9551C273.119 48.972 274.036 49.4805 275.869 49.4805C276.736 49.4805 277.405 49.3516 277.878 49.0938C278.358 48.8431 278.598 48.485 278.598 48.0195C278.598 47.5612 278.297 47.1852 277.695 46.8916C277.094 46.6051 276.317 46.4619 275.364 46.4619ZM283.056 31.96C283.378 31.96 283.654 32.071 283.883 32.293C284.112 32.515 284.227 32.7871 284.227 33.1094C284.227 33.4245 284.112 33.6966 283.883 33.9258C283.654 34.1549 283.378 34.2695 283.056 34.2695C282.755 34.2695 282.49 34.1549 282.261 33.9258C282.032 33.6895 281.917 33.4173 281.917 33.1094C281.917 32.8086 282.032 32.5436 282.261 32.3145C282.49 32.0781 282.755 31.96 283.056 31.96ZM282.089 36.1172H284.044V46H282.089V36.1172ZM294.292 43.6904V45.624C293.311 45.9893 292.351 46.1719 291.413 46.1719C289.866 46.1719 288.631 45.7135 287.707 44.7969C286.79 43.8802 286.332 42.652 286.332 41.1123C286.332 39.5583 286.78 38.305 287.675 37.3525C288.57 36.4001 289.748 35.9238 291.209 35.9238C291.717 35.9238 292.172 35.974 292.573 36.0742C292.981 36.1673 293.483 36.3464 294.077 36.6113V38.6953C293.089 38.0651 292.172 37.75 291.327 37.75C290.446 37.75 289.723 38.0615 289.157 38.6846C288.591 39.3005 288.309 40.0882 288.309 41.0479C288.309 42.0576 288.613 42.8597 289.222 43.4541C289.838 44.0485 290.665 44.3457 291.703 44.3457C292.455 44.3457 293.318 44.1273 294.292 43.6904ZM302.735 40.0596V44.2598C302.735 44.5964 302.85 44.7646 303.079 44.7646C303.315 44.7646 303.684 44.5892 304.186 44.2383V45.4307C303.742 45.7171 303.383 45.9105 303.111 46.0107C302.846 46.1182 302.567 46.1719 302.273 46.1719C301.436 46.1719 300.941 45.8424 300.791 45.1836C299.96 45.8281 299.076 46.1504 298.138 46.1504C297.45 46.1504 296.877 45.9248 296.419 45.4736C295.961 45.0153 295.731 44.4424 295.731 43.7549C295.731 43.1318 295.953 42.5768 296.397 42.0898C296.849 41.5957 297.486 41.2054 298.31 40.9189L300.812 40.0596V39.5332C300.812 38.3444 300.218 37.75 299.029 37.75C297.962 37.75 296.924 38.3014 295.914 39.4043V37.2666C296.673 36.3714 297.765 35.9238 299.19 35.9238C300.257 35.9238 301.113 36.2031 301.758 36.7617C301.973 36.9408 302.166 37.1807 302.338 37.4814C302.51 37.7751 302.617 38.0723 302.66 38.373C302.71 38.6667 302.735 39.2288 302.735 40.0596ZM300.812 44.0449V41.1123L299.502 41.6172C298.836 41.8822 298.363 42.1507 298.084 42.4229C297.812 42.6878 297.676 43.0208 297.676 43.4219C297.676 43.8301 297.805 44.1631 298.062 44.4209C298.327 44.6787 298.668 44.8076 299.083 44.8076C299.706 44.8076 300.283 44.5534 300.812 44.0449ZM305.958 30.9932H307.913V46H305.958V30.9932ZM329.064 30.9932H331.105V46H329.258L319.225 34.4521V46H317.205V30.9932H318.945L329.064 42.6377V30.9932ZM342.481 41.2305H335.531C335.581 42.1758 335.896 42.9277 336.477 43.4863C337.064 44.0449 337.819 44.3242 338.743 44.3242C340.032 44.3242 341.221 43.9232 342.31 43.1211V45.0332C341.708 45.4342 341.11 45.7207 340.516 45.8926C339.928 46.0645 339.237 46.1504 338.442 46.1504C337.354 46.1504 336.473 45.9248 335.8 45.4736C335.127 45.0225 334.586 44.4173 334.178 43.6582C333.777 42.8919 333.576 42.0075 333.576 41.0049C333.576 39.501 334.002 38.2799 334.854 37.3418C335.707 36.3965 336.813 35.9238 338.174 35.9238C339.484 35.9238 340.53 36.3822 341.311 37.2988C342.091 38.2155 342.481 39.4437 342.481 40.9834V41.2305ZM335.574 40.0596H340.548C340.498 39.279 340.265 38.6774 339.85 38.2549C339.434 37.8324 338.876 37.6211 338.174 37.6211C337.472 37.6211 336.896 37.8324 336.444 38.2549C336 38.6774 335.71 39.279 335.574 40.0596ZM353.03 41.2305H346.08C346.13 42.1758 346.445 42.9277 347.025 43.4863C347.613 44.0449 348.368 44.3242 349.292 44.3242C350.581 44.3242 351.77 43.9232 352.858 43.1211V45.0332C352.257 45.4342 351.659 45.7207 351.064 45.8926C350.477 46.0645 349.786 46.1504 348.991 46.1504C347.903 46.1504 347.022 45.9248 346.349 45.4736C345.675 45.0225 345.135 44.4173 344.727 43.6582C344.326 42.8919 344.125 42.0075 344.125 41.0049C344.125 39.501 344.551 38.2799 345.403 37.3418C346.256 36.3965 347.362 35.9238 348.723 35.9238C350.033 35.9238 351.079 36.3822 351.859 37.2988C352.64 38.2155 353.03 39.4437 353.03 40.9834V41.2305ZM346.123 40.0596H351.097C351.047 39.279 350.814 38.6774 350.398 38.2549C349.983 37.8324 349.424 37.6211 348.723 37.6211C348.021 37.6211 347.444 37.8324 346.993 38.2549C346.549 38.6774 346.259 39.279 346.123 40.0596ZM361.753 30.9932H363.719V46H359.54C358.079 46 356.912 45.5381 356.038 44.6143C355.172 43.6904 354.738 42.4515 354.738 40.8975C354.738 39.4437 355.193 38.2477 356.103 37.3096C357.019 36.3714 358.187 35.9023 359.604 35.9023C360.263 35.9023 360.979 36.042 361.753 36.3213V30.9932ZM361.753 44.3242V38.0615C361.144 37.7536 360.528 37.5996 359.905 37.5996C358.931 37.5996 358.154 37.9183 357.574 38.5557C357.001 39.193 356.715 40.0524 356.715 41.1338C356.715 42.1507 356.965 42.9349 357.467 43.4863C357.768 43.8158 358.086 44.0378 358.423 44.1523C358.759 44.2669 359.365 44.3242 360.238 44.3242H361.753ZM365.889 45.291V43.1855C366.44 43.5723 367.002 43.8874 367.575 44.1309C368.155 44.3672 368.642 44.4854 369.036 44.4854C369.444 44.4854 369.795 44.3851 370.089 44.1846C370.382 43.984 370.529 43.7441 370.529 43.4648C370.529 43.1784 370.433 42.9421 370.239 42.7559C370.053 42.5625 369.645 42.2868 369.015 41.9287C367.754 41.2269 366.927 40.6289 366.533 40.1348C366.146 39.6335 365.953 39.0892 365.953 38.502C365.953 37.7428 366.247 37.1234 366.834 36.6436C367.428 36.1637 368.191 35.9238 369.122 35.9238C370.089 35.9238 371.081 36.196 372.098 36.7402V38.6738C370.938 37.972 369.989 37.6211 369.251 37.6211C368.871 37.6211 368.563 37.7035 368.327 37.8682C368.098 38.0257 367.983 38.237 367.983 38.502C367.983 38.7311 368.087 38.9495 368.295 39.1572C368.51 39.3649 368.882 39.6156 369.412 39.9092L370.11 40.3066C371.757 41.2376 372.581 42.2689 372.581 43.4004C372.581 44.2096 372.262 44.8757 371.625 45.3984C370.995 45.9141 370.182 46.1719 369.187 46.1719C368.599 46.1719 368.076 46.111 367.618 45.9893C367.16 45.8604 366.583 45.6276 365.889 45.291Z" fill="white"/>
</svg>
