<svg width="358" height="76" viewBox="0 0 358 76" fill="none" xmlns="http://www.w3.org/2000/svg">
<path d="M337.991 51.7787L349.185 67.6301C351.056 70.2797 349.161 73.9375 345.918 73.9375H11.5823C8.33864 73.9375 6.44379 70.2797 8.31485 67.6301L19.5087 51.7787L28.4462 39.1224L37.3837 26.4662L53.4658 3.69263C54.2153 2.63119 55.4338 2 56.7332 2H300.767C302.066 2 303.285 2.6312 304.034 3.69263L305.668 2.53895L304.034 3.69263L320.116 26.4662L329.054 39.1224L337.991 51.7787Z" stroke="white" stroke-width="4"/>
<path d="M94.6543 30.9932H96.8027V44.0449H103.56V46H94.6543V30.9932ZM109.897 36.0957C111.401 36.0957 112.651 36.5827 113.646 37.5566C114.642 38.5234 115.14 39.7409 115.14 41.209C115.14 42.6341 114.635 43.8193 113.625 44.7646C112.615 45.7028 111.344 46.1719 109.812 46.1719C108.329 46.1719 107.09 45.6956 106.095 44.7432C105.099 43.7835 104.602 42.5876 104.602 41.1553C104.602 39.7087 105.103 38.5055 106.105 37.5459C107.115 36.5791 108.379 36.0957 109.897 36.0957ZM109.79 37.8574C108.852 37.8574 108.082 38.1654 107.48 38.7812C106.879 39.3971 106.578 40.1813 106.578 41.1338C106.578 42.0791 106.886 42.8525 107.502 43.4541C108.118 44.0485 108.909 44.3457 109.876 44.3457C110.836 44.3457 111.62 44.0449 112.229 43.4434C112.844 42.8346 113.152 42.0576 113.152 41.1123C113.152 40.1742 112.834 39.3971 112.196 38.7812C111.559 38.1654 110.757 37.8574 109.79 37.8574ZM123.357 36.1172H125.474L121.112 46.1719H120.457L115.988 36.1172H118.126L120.79 42.1973L123.357 36.1172ZM135.378 41.2305H128.428C128.478 42.1758 128.793 42.9277 129.373 43.4863C129.96 44.0449 130.716 44.3242 131.64 44.3242C132.929 44.3242 134.118 43.9232 135.206 43.1211V45.0332C134.604 45.4342 134.007 45.7207 133.412 45.8926C132.825 46.0645 132.134 46.1504 131.339 46.1504C130.25 46.1504 129.369 45.9248 128.696 45.4736C128.023 45.0225 127.482 44.4173 127.074 43.6582C126.673 42.8919 126.473 42.0075 126.473 41.0049C126.473 39.501 126.899 38.2799 127.751 37.3418C128.603 36.3965 129.71 35.9238 131.07 35.9238C132.381 35.9238 133.426 36.3822 134.207 37.2988C134.988 38.2155 135.378 39.4437 135.378 40.9834V41.2305ZM128.471 40.0596H133.444C133.394 39.279 133.161 38.6774 132.746 38.2549C132.331 37.8324 131.772 37.6211 131.07 37.6211C130.368 37.6211 129.792 37.8324 129.341 38.2549C128.897 38.6774 128.607 39.279 128.471 40.0596ZM149.837 40.0596V44.2598C149.837 44.5964 149.951 44.7646 150.181 44.7646C150.417 44.7646 150.786 44.5892 151.287 44.2383V45.4307C150.843 45.7171 150.485 45.9105 150.213 46.0107C149.948 46.1182 149.669 46.1719 149.375 46.1719C148.537 46.1719 148.043 45.8424 147.893 45.1836C147.062 45.8281 146.177 46.1504 145.239 46.1504C144.552 46.1504 143.979 45.9248 143.521 45.4736C143.062 45.0153 142.833 44.4424 142.833 43.7549C142.833 43.1318 143.055 42.5768 143.499 42.0898C143.95 41.5957 144.588 41.2054 145.411 40.9189L147.914 40.0596V39.5332C147.914 38.3444 147.32 37.75 146.131 37.75C145.064 37.75 144.025 38.3014 143.016 39.4043V37.2666C143.775 36.3714 144.867 35.9238 146.292 35.9238C147.359 35.9238 148.215 36.2031 148.859 36.7617C149.074 36.9408 149.268 37.1807 149.439 37.4814C149.611 37.7751 149.719 38.0723 149.762 38.373C149.812 38.6667 149.837 39.2288 149.837 40.0596ZM147.914 44.0449V41.1123L146.604 41.6172C145.938 41.8822 145.465 42.1507 145.186 42.4229C144.913 42.6878 144.777 43.0208 144.777 43.4219C144.777 43.8301 144.906 44.1631 145.164 44.4209C145.429 44.6787 145.769 44.8076 146.185 44.8076C146.808 44.8076 147.384 44.5534 147.914 44.0449ZM154.972 36.1172V37.374C155.845 36.4072 156.837 35.9238 157.947 35.9238C158.563 35.9238 159.136 36.085 159.666 36.4072C160.196 36.7223 160.597 37.1592 160.869 37.7178C161.148 38.2692 161.288 39.1465 161.288 40.3496V46H159.333V40.3711C159.333 39.3613 159.179 38.6416 158.871 38.2119C158.563 37.7751 158.048 37.5566 157.324 37.5566C156.4 37.5566 155.616 38.0186 154.972 38.9424V46H152.974V36.1172H154.972ZM170.612 30.9932H172.578V46H168.399C166.938 46 165.771 45.5381 164.897 44.6143C164.031 43.6904 163.598 42.4515 163.598 40.8975C163.598 39.4437 164.052 38.2477 164.962 37.3096C165.879 36.3714 167.046 35.9023 168.464 35.9023C169.123 35.9023 169.839 36.042 170.612 36.3213V30.9932ZM170.612 44.3242V38.0615C170.004 37.7536 169.388 37.5996 168.765 37.5996C167.791 37.5996 167.014 37.9183 166.434 38.5557C165.861 39.193 165.574 40.0524 165.574 41.1338C165.574 42.1507 165.825 42.9349 166.326 43.4863C166.627 43.8158 166.946 44.0378 167.282 44.1523C167.619 44.2669 168.224 44.3242 169.098 44.3242H170.612ZM181.269 30.9932H183.224V36.8262C184.069 36.2103 184.971 35.9023 185.931 35.9023C187.184 35.9023 188.208 36.375 189.003 37.3203C189.798 38.2656 190.195 39.4795 190.195 40.9619C190.195 42.5518 189.719 43.8193 188.767 44.7646C187.821 45.7028 186.554 46.1719 184.964 46.1719C184.326 46.1719 183.653 46.1038 182.944 45.9678C182.243 45.8317 181.684 45.6598 181.269 45.4521V30.9932ZM183.224 38.6953V44.0449C183.89 44.2454 184.574 44.3457 185.275 44.3457C186.142 44.3457 186.847 44.0378 187.392 43.4219C187.943 42.806 188.219 42.0146 188.219 41.0479C188.219 40.0667 187.961 39.2682 187.445 38.6523C186.937 38.0365 186.271 37.7285 185.447 37.7285C184.717 37.7285 183.976 38.0508 183.224 38.6953ZM200.776 41.2305H193.826C193.876 42.1758 194.191 42.9277 194.771 43.4863C195.359 44.0449 196.114 44.3242 197.038 44.3242C198.327 44.3242 199.516 43.9232 200.604 43.1211V45.0332C200.003 45.4342 199.405 45.7207 198.811 45.8926C198.223 46.0645 197.532 46.1504 196.737 46.1504C195.649 46.1504 194.768 45.9248 194.095 45.4736C193.422 45.0225 192.881 44.4173 192.473 43.6582C192.072 42.8919 191.871 42.0075 191.871 41.0049C191.871 39.501 192.297 38.2799 193.149 37.3418C194.002 36.3965 195.108 35.9238 196.469 35.9238C197.779 35.9238 198.825 36.3822 199.605 37.2988C200.386 38.2155 200.776 39.4437 200.776 40.9834V41.2305ZM193.869 40.0596H198.843C198.793 39.279 198.56 38.6774 198.145 38.2549C197.729 37.8324 197.171 37.6211 196.469 37.6211C195.767 37.6211 195.19 37.8324 194.739 38.2549C194.295 38.6774 194.005 39.279 193.869 40.0596ZM202.946 30.9932H204.901V46H202.946V30.9932ZM212.464 36.0957C213.968 36.0957 215.217 36.5827 216.213 37.5566C217.208 38.5234 217.706 39.7409 217.706 41.209C217.706 42.6341 217.201 43.8193 216.191 44.7646C215.182 45.7028 213.91 46.1719 212.378 46.1719C210.896 46.1719 209.657 45.6956 208.661 44.7432C207.666 43.7835 207.168 42.5876 207.168 41.1553C207.168 39.7087 207.669 38.5055 208.672 37.5459C209.682 36.5791 210.946 36.0957 212.464 36.0957ZM212.356 37.8574C211.418 37.8574 210.648 38.1654 210.047 38.7812C209.445 39.3971 209.145 40.1813 209.145 41.1338C209.145 42.0791 209.452 42.8525 210.068 43.4541C210.684 44.0485 211.476 44.3457 212.442 44.3457C213.402 44.3457 214.186 44.0449 214.795 43.4434C215.411 42.8346 215.719 42.0576 215.719 41.1123C215.719 40.1742 215.4 39.3971 214.763 38.7812C214.125 38.1654 213.323 37.8574 212.356 37.8574ZM221.831 36.1172V37.374C222.705 36.4072 223.697 35.9238 224.807 35.9238C225.423 35.9238 225.995 36.085 226.525 36.4072C227.055 36.7223 227.456 37.1592 227.729 37.7178C228.008 38.2692 228.147 39.1465 228.147 40.3496V46H226.192V40.3711C226.192 39.3613 226.038 38.6416 225.73 38.2119C225.423 37.7751 224.907 37.5566 224.184 37.5566C223.26 37.5566 222.476 38.0186 221.831 38.9424V46H219.833V36.1172H221.831ZM230.371 39.5332C230.371 38.4805 230.754 37.6497 231.521 37.041C232.294 36.4251 233.347 36.1172 234.679 36.1172H238.75V37.6426H236.752C237.139 38.0365 237.407 38.3945 237.558 38.7168C237.708 39.0391 237.783 39.4079 237.783 39.8232C237.783 40.3389 237.636 40.8473 237.343 41.3486C237.049 41.8428 236.67 42.2223 236.204 42.4873C235.746 42.7523 234.99 42.9635 233.938 43.1211C233.2 43.2285 232.831 43.4827 232.831 43.8838C232.831 44.113 232.967 44.3027 233.239 44.4531C233.519 44.5964 234.02 44.7467 234.743 44.9043C235.953 45.1693 236.73 45.377 237.074 45.5273C237.425 45.6777 237.74 45.8926 238.02 46.1719C238.492 46.6445 238.729 47.2389 238.729 47.9551C238.729 48.8932 238.31 49.6416 237.472 50.2002C236.641 50.7588 235.527 51.0381 234.131 51.0381C232.72 51.0381 231.592 50.7552 230.747 50.1895C229.909 49.6309 229.49 48.8789 229.49 47.9336C229.49 46.5944 230.317 45.7314 231.972 45.3447C231.313 44.9222 230.983 44.5033 230.983 44.0879C230.983 43.7728 231.123 43.4863 231.402 43.2285C231.689 42.9707 232.072 42.7809 232.552 42.6592C231.098 42.0146 230.371 40.9727 230.371 39.5332ZM234.045 37.8145C233.515 37.8145 233.064 37.9935 232.691 38.3516C232.319 38.7096 232.133 39.1393 232.133 39.6406C232.133 40.1491 232.315 40.5716 232.681 40.9082C233.046 41.2376 233.508 41.4023 234.066 41.4023C234.618 41.4023 235.076 41.234 235.441 40.8975C235.814 40.5537 236 40.1276 236 39.6191C236 39.1035 235.814 38.6738 235.441 38.3301C235.069 37.9863 234.604 37.8145 234.045 37.8145ZM233.583 46.4619C232.924 46.4619 232.383 46.6016 231.961 46.8809C231.546 47.1602 231.338 47.5182 231.338 47.9551C231.338 48.972 232.255 49.4805 234.088 49.4805C234.954 49.4805 235.624 49.3516 236.097 49.0938C236.576 48.8431 236.816 48.485 236.816 48.0195C236.816 47.5612 236.516 47.1852 235.914 46.8916C235.312 46.6051 234.535 46.4619 233.583 46.4619ZM241.274 31.96C241.597 31.96 241.872 32.071 242.102 32.293C242.331 32.515 242.445 32.7871 242.445 33.1094C242.445 33.4245 242.331 33.6966 242.102 33.9258C241.872 34.1549 241.597 34.2695 241.274 34.2695C240.974 34.2695 240.709 34.1549 240.479 33.9258C240.25 33.6895 240.136 33.4173 240.136 33.1094C240.136 32.8086 240.25 32.5436 240.479 32.3145C240.709 32.0781 240.974 31.96 241.274 31.96ZM240.308 36.1172H242.263V46H240.308V36.1172ZM247.054 36.1172V37.374C247.927 36.4072 248.919 35.9238 250.029 35.9238C250.645 35.9238 251.218 36.085 251.748 36.4072C252.278 36.7223 252.679 37.1592 252.951 37.7178C253.23 38.2692 253.37 39.1465 253.37 40.3496V46H251.415V40.3711C251.415 39.3613 251.261 38.6416 250.953 38.2119C250.645 37.7751 250.13 37.5566 249.406 37.5566C248.482 37.5566 247.698 38.0186 247.054 38.9424V46H245.056V36.1172H247.054ZM255.594 39.5332C255.594 38.4805 255.977 37.6497 256.743 37.041C257.517 36.4251 258.569 36.1172 259.901 36.1172H263.973V37.6426H261.975C262.361 38.0365 262.63 38.3945 262.78 38.7168C262.931 39.0391 263.006 39.4079 263.006 39.8232C263.006 40.3389 262.859 40.8473 262.565 41.3486C262.272 41.8428 261.892 42.2223 261.427 42.4873C260.968 42.7523 260.213 42.9635 259.16 43.1211C258.423 43.2285 258.054 43.4827 258.054 43.8838C258.054 44.113 258.19 44.3027 258.462 44.4531C258.741 44.5964 259.243 44.7467 259.966 44.9043C261.176 45.1693 261.953 45.377 262.297 45.5273C262.648 45.6777 262.963 45.8926 263.242 46.1719C263.715 46.6445 263.951 47.2389 263.951 47.9551C263.951 48.8932 263.532 49.6416 262.694 50.2002C261.864 50.7588 260.75 51.0381 259.354 51.0381C257.943 51.0381 256.815 50.7552 255.97 50.1895C255.132 49.6309 254.713 48.8789 254.713 47.9336C254.713 46.5944 255.54 45.7314 257.194 45.3447C256.535 44.9222 256.206 44.5033 256.206 44.0879C256.206 43.7728 256.346 43.4863 256.625 43.2285C256.911 42.9707 257.295 42.7809 257.774 42.6592C256.321 42.0146 255.594 40.9727 255.594 39.5332ZM259.268 37.8145C258.738 37.8145 258.286 37.9935 257.914 38.3516C257.542 38.7096 257.355 39.1393 257.355 39.6406C257.355 40.1491 257.538 40.5716 257.903 40.9082C258.269 41.2376 258.73 41.4023 259.289 41.4023C259.84 41.4023 260.299 41.234 260.664 40.8975C261.036 40.5537 261.223 40.1276 261.223 39.6191C261.223 39.1035 261.036 38.6738 260.664 38.3301C260.292 37.9863 259.826 37.8145 259.268 37.8145ZM258.806 46.4619C258.147 46.4619 257.606 46.6016 257.184 46.8809C256.768 47.1602 256.561 47.5182 256.561 47.9551C256.561 48.972 257.477 49.4805 259.311 49.4805C260.177 49.4805 260.847 49.3516 261.319 49.0938C261.799 48.8431 262.039 48.485 262.039 48.0195C262.039 47.5612 261.738 47.1852 261.137 46.8916C260.535 46.6051 259.758 46.4619 258.806 46.4619Z" fill="white"/>
</svg>
